<?xml version="1.0" standalone="no"?>
<!DOCTYPE svg PUBLIC "-//W3C//DTD SVG 1.1//EN"
"http://www.w3.org/Graphics/SVG/1.1/DTD/svg11.dtd">

<svg width="289" height="394" view_box="0 0 289 394"
xmlns="http://www.w3.org/2000/svg"
xmlns:link="http://www.w3.org/1999/xlink">

<desc>Generated by Mocodo 2.3.8 on Thu, 31 Dec 2020 16:57:28</desc>

<rect id="frame" x="0" y="0" width="289" height="394" fill="none" stroke="none" stroke-width="0"/>

<!-- Entity RATIO -->
<g id="entity-RATIO">
	<g id="frame-RATIO">
		<rect x="38" y="9" width="74" height="30" fill="#97b8ff" stroke="#97b8ff" stroke-width="0"/>
		<rect x="38" y="39.0" width="74" height="46" fill="#c0d4ff" stroke="#c0d4ff" stroke-width="0"/>
		<rect x="38" y="9" width="74" height="76" fill="none" stroke="#578dff" stroke-width="1.5"/>
		<line x1="38" y1="39" x2="112" y2="39" stroke="#578dff" stroke-width="1.5"/>
	</g>
	<text x="46" y="30.3" fill="#131114" font-family="Copperplate" font-size="18">RATIO</text>
	<text x="46" y="56.1" fill="#3e3c42" font-family="Gill Sans" font-size="15">date</text>
	<line x1="46" y1="59" x2="74" y2="59" stroke="#3e3c42" stroke-width="1"/>
	<text x="46" y="73.1" fill="#3e3c42" font-family="Gill Sans" font-size="15">value</text>
</g>

<!-- Entity HEADSHOTS -->
<g id="entity-HEADSHOTS">
	<g id="frame-HEADSHOTS">
		<rect x="148" y="9" width="132" height="30" fill="#97b8ff" stroke="#97b8ff" stroke-width="0"/>
		<rect x="148" y="39.0" width="132" height="46" fill="#c0d4ff" stroke="#c0d4ff" stroke-width="0"/>
		<rect x="148" y="9" width="132" height="76" fill="none" stroke="#578dff" stroke-width="1.5"/>
		<line x1="148" y1="39" x2="280" y2="39" stroke="#578dff" stroke-width="1.5"/>
	</g>
	<text x="156" y="30.3" fill="#131114" font-family="Copperplate" font-size="18">HEADSHOTS</text>
	<text x="156" y="56.1" fill="#3e3c42" font-family="Gill Sans" font-size="15">date</text>
	<line x1="156" y1="59" x2="184" y2="59" stroke="#3e3c42" stroke-width="1"/>
	<text x="156" y="73.1" fill="#3e3c42" font-family="Gill Sans" font-size="15">value</text>
</g>

<!-- Entity GAMETIME -->
<g id="entity-GAMETIME">
	<g id="frame-GAMETIME">
		<rect x="18" y="109" width="114" height="30" fill="#97b8ff" stroke="#97b8ff" stroke-width="0"/>
		<rect x="18" y="139.0" width="114" height="46" fill="#c0d4ff" stroke="#c0d4ff" stroke-width="0"/>
		<rect x="18" y="109" width="114" height="76" fill="none" stroke="#578dff" stroke-width="1.5"/>
		<line x1="18" y1="139" x2="132" y2="139" stroke="#578dff" stroke-width="1.5"/>
	</g>
	<text x="26" y="130.3" fill="#131114" font-family="Copperplate" font-size="18">GAMETIME</text>
	<text x="26" y="156.1" fill="#3e3c42" font-family="Gill Sans" font-size="15">date</text>
	<line x1="26" y1="159" x2="54" y2="159" stroke="#3e3c42" stroke-width="1"/>
	<text x="26" y="173.1" fill="#3e3c42" font-family="Gill Sans" font-size="15">value</text>
</g>

<!-- Entity MATCHES -->
<g id="entity-MATCHES">
	<g id="frame-MATCHES">
		<rect x="161" y="109" width="106" height="30" fill="#97b8ff" stroke="#97b8ff" stroke-width="0"/>
		<rect x="161" y="139.0" width="106" height="46" fill="#c0d4ff" stroke="#c0d4ff" stroke-width="0"/>
		<rect x="161" y="109" width="106" height="76" fill="none" stroke="#578dff" stroke-width="1.5"/>
		<line x1="161" y1="139" x2="267" y2="139" stroke="#578dff" stroke-width="1.5"/>
	</g>
	<text x="169" y="130.3" fill="#131114" font-family="Copperplate" font-size="18">MATCHES</text>
	<text x="169" y="156.1" fill="#3e3c42" font-family="Gill Sans" font-size="15">date</text>
	<line x1="169" y1="159" x2="197" y2="159" stroke="#3e3c42" stroke-width="1"/>
	<text x="169" y="173.1" fill="#3e3c42" font-family="Gill Sans" font-size="15">value</text>
</g>

<!-- Entity DEATHS -->
<g id="entity-DEATHS">
	<g id="frame-DEATHS">
		<rect x="29" y="209" width="92" height="30" fill="#97b8ff" stroke="#97b8ff" stroke-width="0"/>
		<rect x="29" y="239.0" width="92" height="46" fill="#c0d4ff" stroke="#c0d4ff" stroke-width="0"/>
		<rect x="29" y="209" width="92" height="76" fill="none" stroke="#578dff" stroke-width="1.5"/>
		<line x1="29" y1="239" x2="121" y2="239" stroke="#578dff" stroke-width="1.5"/>
	</g>
	<text x="37" y="230.3" fill="#131114" font-family="Copperplate" font-size="18">DEATHS</text>
	<text x="37" y="256.1" fill="#3e3c42" font-family="Gill Sans" font-size="15">date</text>
	<line x1="37" y1="259" x2="65" y2="259" stroke="#3e3c42" stroke-width="1"/>
	<text x="37" y="273.1" fill="#3e3c42" font-family="Gill Sans" font-size="15">value</text>
</g>

<!-- Entity KILLS -->
<g id="entity-KILLS">
	<g id="frame-KILLS">
		<rect x="179" y="209" width="70" height="30" fill="#97b8ff" stroke="#97b8ff" stroke-width="0"/>
		<rect x="179" y="239.0" width="70" height="46" fill="#c0d4ff" stroke="#c0d4ff" stroke-width="0"/>
		<rect x="179" y="209" width="70" height="76" fill="none" stroke="#578dff" stroke-width="1.5"/>
		<line x1="179" y1="239" x2="249" y2="239" stroke="#578dff" stroke-width="1.5"/>
	</g>
	<text x="187" y="230.3" fill="#131114" font-family="Copperplate" font-size="18">KILLS</text>
	<text x="187" y="256.1" fill="#3e3c42" font-family="Gill Sans" font-size="15">date</text>
	<line x1="187" y1="259" x2="215" y2="259" stroke="#3e3c42" stroke-width="1"/>
	<text x="187" y="273.1" fill="#3e3c42" font-family="Gill Sans" font-size="15">value</text>
</g>

<!-- Entity WALLBANGS -->
<g id="entity-WALLBANGS">
	<g id="frame-WALLBANGS">
		<rect x="9" y="309" width="132" height="30" fill="#97b8ff" stroke="#97b8ff" stroke-width="0"/>
		<rect x="9" y="339.0" width="132" height="46" fill="#c0d4ff" stroke="#c0d4ff" stroke-width="0"/>
		<rect x="9" y="309" width="132" height="76" fill="none" stroke="#578dff" stroke-width="1.5"/>
		<line x1="9" y1="339" x2="141" y2="339" stroke="#578dff" stroke-width="1.5"/>
	</g>
	<text x="17" y="330.3" fill="#131114" font-family="Copperplate" font-size="18">WALLBANGS</text>
	<text x="17" y="356.1" fill="#3e3c42" font-family="Gill Sans" font-size="15">date</text>
	<line x1="17" y1="359" x2="45" y2="359" stroke="#3e3c42" stroke-width="1"/>
	<text x="17" y="373.1" fill="#3e3c42" font-family="Gill Sans" font-size="15">value</text>
</g>
</svg>